<svg width="31" height="32" viewBox="0 0 31 32" fill="none" xmlns="http://www.w3.org/2000/svg">
<path fill-rule="evenodd" clip-rule="evenodd" d="M28.4163 18.6284V12.5942C28.4163 10.9755 28.3313 9.58667 28.0734 8.42615C27.8122 7.25096 27.3569 6.23225 26.5623 5.43759C25.7676 4.64293 24.7489 4.18763 23.5736 3.92646C22.4132 3.66854 21.0243 3.5835 19.4057 3.5835H11.5937C9.97505 3.5835 8.58618 3.66854 7.42566 3.92646C6.25048 4.18763 5.23176 4.64293 4.4371 5.43759C3.64245 6.23225 3.18715 7.25096 2.92597 8.42615C2.66805 9.58667 2.58301 10.9755 2.58301 12.5942V20.4062C2.58301 22.0247 2.66805 23.4137 2.92597 24.5741C3.18715 25.7494 3.64245 26.7681 4.4371 27.5628C5.23176 28.3574 6.25048 28.8127 7.42566 29.0739C8.58618 29.3318 9.97505 29.4168 11.5937 29.4168H19.4057C21.0243 29.4168 22.4132 29.3318 23.5736 29.0739C24.7489 28.8127 25.7676 28.3574 26.5623 27.5628C27.3569 26.7681 27.8122 25.7494 28.0734 24.5741C28.3313 23.4137 28.4163 22.0247 28.4163 20.4062V18.6885C28.4169 18.6685 28.4169 18.6485 28.4163 18.6284ZM5.44777 8.9866C5.25159 9.86933 5.16634 11.0345 5.16634 12.5942V15.3325C6.09617 14.4384 6.96177 13.7069 7.79998 13.1735C8.81565 12.5272 9.85793 12.1288 10.9817 12.1288C12.1056 12.1288 13.1478 12.5272 14.1636 13.1735C15.1666 13.8118 16.2087 14.7337 17.3532 15.8782L19.4526 17.9776C20.7227 16.9305 21.9681 16.2076 23.3086 16.0406C24.1916 15.9305 25.0243 16.0704 25.833 16.3966V12.5942C25.833 11.0345 25.7478 9.86933 25.5516 8.9866C25.3587 8.11855 25.0761 7.6048 24.7356 7.26428C24.395 6.92377 23.8813 6.64118 23.0132 6.44826C22.1306 6.25208 20.9654 6.16683 19.4057 6.16683H11.5937C10.034 6.16683 8.86884 6.25208 7.98611 6.44826C7.11806 6.64118 6.60431 6.92377 6.26379 7.26428C5.92328 7.6048 5.64069 8.11855 5.44777 8.9866Z" fill="white"/>
<path fill-rule="evenodd" clip-rule="evenodd" d="M18.083 11.3333C18.083 9.9066 19.2396 8.75 20.6663 8.75C22.0931 8.75 23.2497 9.9066 23.2497 11.3333C23.2497 12.7601 22.0931 13.9167 20.6663 13.9167C19.2396 13.9167 18.083 12.7601 18.083 11.3333Z" fill="white"/>
</svg>
