<svg width="27" height="27" viewBox="0 0 27 27" fill="none" xmlns="http://www.w3.org/2000/svg">
<path fill-rule="evenodd" clip-rule="evenodd" d="M26.4163 15.6284V9.59416C26.4163 7.97554 26.3314 6.58667 26.0734 5.42615C25.8122 4.25096 25.3569 3.23225 24.5623 2.43759C23.7676 1.64293 22.7489 1.18763 21.5736 0.92646C20.4132 0.66854 19.0243 0.583496 17.4057 0.583496H9.59367C7.97505 0.583496 6.58618 0.66854 5.42566 0.92646C4.25048 1.18763 3.23176 1.64293 2.4371 2.43759C1.64245 3.23225 1.18715 4.25096 0.925971 5.42615C0.668051 6.58667 0.583008 7.97554 0.583008 9.59416V17.4062C0.583008 19.0247 0.668051 20.4137 0.925971 21.5741C1.18715 22.7494 1.64245 23.7681 2.4371 24.5628C3.23176 25.3574 4.25048 25.8127 5.42566 26.0739C6.58618 26.3318 7.97505 26.4168 9.59367 26.4168H17.4057C19.0243 26.4168 20.4132 26.3318 21.5736 26.0739C22.7489 25.8127 23.7676 25.3574 24.5623 24.5628C25.3569 23.7681 25.8122 22.7494 26.0734 21.5741C26.3314 20.4137 26.4163 19.0247 26.4163 17.4062V15.6885C26.4169 15.6685 26.4169 15.6485 26.4163 15.6284ZM3.44777 5.9866C3.25159 6.86933 3.16634 8.03449 3.16634 9.59416V12.3325C4.09617 11.4384 4.96177 10.7069 5.79998 10.1735C6.81565 9.52722 7.85793 9.12883 8.98175 9.12883C10.1056 9.12883 11.1478 9.52722 12.1636 10.1735C13.1666 10.8118 14.2087 11.7337 15.3532 12.8782L17.4526 14.9776C18.7227 13.9305 19.9681 13.2076 21.3086 13.0406C22.1916 12.9305 23.0243 13.0704 23.833 13.3966V9.59416C23.833 8.03449 23.7478 6.86933 23.5516 5.9866C23.3587 5.11855 23.0761 4.6048 22.7356 4.26428C22.395 3.92377 21.8813 3.64118 21.0132 3.44826C20.1306 3.25208 18.9654 3.16683 17.4057 3.16683H9.59367C8.034 3.16683 6.86884 3.25208 5.98611 3.44826C5.11806 3.64118 4.60431 3.92377 4.26379 4.26428C3.92328 4.6048 3.64069 5.11855 3.44777 5.9866Z" fill="white"/>
</svg>
